<svg width="24px" height="24px" viewBox="0 0 64 64" fill="currentColor" fill-rule="evenodd" xml:space="preserve" xmlns="http://www.w3.org/2000/svg"><path d="M60 44h-3.47a5 5 0 0 1-4.371-2.572l-2.495-4.492c3.771-.445 6.861-3.192 7.704-6.984l.353-1.587 1.29.516A2.908 2.908 0 0 0 63 26.18a2.9 2.9 0 0 0-1.608-2.603l-1.656-.828a1 1 0 0 1-.542-1.036l.484-3.393A2.908 2.908 0 0 0 56.799 15h-.214a2.91 2.91 0 0 0-2.859 2.373l-1.688 9.004a5.672 5.672 0 0 1-9.26 3.259l-3.25-2.786.472-.315V21h-2V1H26v20h-2v5.535l.472.315-3.25 2.786a5.67 5.67 0 0 1-9.258-3.259l-1.688-9.004A2.91 2.91 0 0 0 7.416 15h-.215a2.91 2.91 0 0 0-2.88 3.32l.484 3.394a1 1 0 0 1-.543 1.036l-1.656.828A2.9 2.9 0 0 0 1 26.18a2.908 2.908 0 0 0 3.99 2.701l1.289-.516.353 1.587c.843 3.792 3.933 6.54 7.704 6.984l-2.495 4.492A5 5 0 0 1 7.47 44H4c-1.654 0-3 1.346-3 3s1.346 3 3 3h2.967c.342 0 .646.164.835.45s.219.629.084.944l-.61 1.424a2.99 2.99 0 0 0 .253 2.833A2.99 2.99 0 0 0 10.033 57h.581a3.015 3.015 0 0 0 2.81-1.947l1.46-3.893a3.34 3.34 0 0 1 2.117-2.005V61c0 1.103.897 2 2 2h2c1.103 0 2-.897 2-2V44.799c0-3.472 1.352-6.737 3.808-9.192L31.414 31h1.172l4.606 4.606A12.92 12.92 0 0 1 41 44.799V59c0 1.103.897 2 2 2h2c1.103 0 2-.897 2-2v-9.845a3.35 3.35 0 0 1 2.117 2.005l1.46 3.893A3.01 3.01 0 0 0 53.386 57h.581a2.99 2.99 0 0 0 2.504-1.349 2.99 2.99 0 0 0 .253-2.833l-.611-1.425c-.135-.314-.104-.658.084-.944s.494-.449.836-.449H60c1.654 0 3-1.346 3-3s-1.346-3-3-3M36 9h-8V7h8zm0 2v2h-8v-2zm0 4v2h-8v-2zm0-12v2h-8V3zm-8 16h8v2h-8zm-2 4h12v2.465L32.697 29h-1.395L26 25.465zm-.606 11.192A14.9 14.9 0 0 0 21 44.799V61h-2V47h-1a5.355 5.355 0 0 0-4.99 3.458l-1.459 3.893a1.01 1.01 0 0 1-.937.649h-.581c-.342 0-.646-.164-.835-.45s-.219-.629-.084-.944l.61-1.424a2.99 2.99 0 0 0-.253-2.833A2.99 2.99 0 0 0 6.967 48H4c-.551 0-1-.449-1-1s.449-1 1-1h3.47a7 7 0 0 0 6.119-3.6L17.7 35h-2.282a6.96 6.96 0 0 1-6.833-5.481l-.863-3.884-3.474 1.389a.9.9 0 0 1-.848-.091.9.9 0 0 1-.4-.753c0-.347.193-.659.502-.813l1.655-.828a2.99 2.99 0 0 0 1.628-3.107l-.484-3.394c-.038-.265.038-.522.213-.724s.42-.314.687-.314h.214a.91.91 0 0 1 .894.742l1.688 9.003a7.67 7.67 0 0 0 12.527 4.409l3.677-3.152 3.23 2.153zM60 48h-2.967a2.99 2.99 0 0 0-2.504 1.349 2.99 2.99 0 0 0-.253 2.833l.611 1.425c.135.314.104.658-.084.944s-.494.449-.836.449h-.581c-.415 0-.791-.261-.937-.649l-1.46-3.893A5.35 5.35 0 0 0 46 47h-1v12h-2V44.799c0-4.006-1.56-7.773-4.394-10.606l-4.037-4.037 3.23-2.153 3.677 3.152a7.67 7.67 0 0 0 12.526-4.409l1.688-9.003a.91.91 0 0 1 .894-.743h.214c.268 0 .511.111.687.313s.251.459.213.725l-.484 3.393a2.99 2.99 0 0 0 1.628 3.108l1.655.827c.31.155.503.467.503.814a.9.9 0 0 1-.399.752.89.89 0 0 1-.847.091l-3.475-1.389-.863 3.884A6.96 6.96 0 0 1 48.583 35H46.3l4.111 7.4A7 7 0 0 0 56.53 46H60c.551 0 1 .449 1 1s-.449 1-1 1"/></svg>
