<svg width="28" height="28" fill="none" fill-rule="evenodd" stroke="currentColor" xmlns="http://www.w3.org/2000/svg" viewBox="61.38999938964844 -20 389.22100830078125 552.001953125" xml:space="preserve"><path d="M198.208 178.158h28.259a6.636 6.636 0 0 1 6.637 6.637v28.259a6.636 6.636 0 0 0 6.637 6.637h32.52a6.64 6.64 0 0 0 6.637-6.638v-28.259a6.636 6.636 0 0 1 6.637-6.637h28.259a6.636 6.636 0 0 0 6.637-6.637v-32.518a6.636 6.636 0 0 0-6.637-6.637h-28.259a6.636 6.636 0 0 1-6.637-6.637V97.469a6.636 6.636 0 0 0-6.637-6.637h-32.52a6.636 6.636 0 0 0-6.637 6.637v28.259a6.636 6.636 0 0 1-6.637 6.637h-28.259a6.636 6.636 0 0 0-6.637 6.637v32.52a6.636 6.636 0 0 0 6.637 6.636"/><path d="M450.611 54.045c0-29.8-24.245-54.045-54.045-54.045H115.435C85.635 0 61.39 24.245 61.39 54.045v403.912c0 29.8 24.245 54.045 54.045 54.045h197.978c3.3 0 6.606-1.295 9.072-3.758l124.37-124.368a12.94 12.94 0 0 0 3.756-9.071zm-124.37 414.156v-52.184c0-15.653 12.733-28.386 28.387-28.386h52.184c-8.556 8.555-72.258 72.255-80.571 80.57m98.713-106.227h-70.325c-29.8 0-54.045 24.243-54.045 54.043v70.325H115.435c-15.653 0-28.387-12.735-28.387-28.387V54.045c0-15.653 12.735-28.387 28.387-28.387h281.131c15.653 0 28.387 12.735 28.387 28.387v307.929z"/><path d="M374.458 284.224H137.545c-7.085 0-12.829 5.744-12.829 12.829s5.744 12.829 12.829 12.829h236.913c7.087 0 12.829-5.744 12.829-12.829s-5.742-12.829-12.829-12.829m-106.483 63.288h-130.43c-7.085 0-12.829 5.744-12.829 12.829s5.744 12.829 12.829 12.829h130.43c7.087 0 12.829-5.744 12.829-12.829s-5.742-12.829-12.829-12.829m0 63.288h-130.43c-7.085 0-12.829 5.744-12.829 12.829s5.744 12.829 12.829 12.829h130.43c7.087 0 12.829-5.744 12.829-12.829S275.06 410.8 267.975 410.8"/></svg>
