<svg width="28" height="28" viewBox="0 0 28 28" xmlns="http://www.w3.org/2000/svg">
    <g fill="none" fill-rule="evenodd">
        <path d="M0 0h28v28H0z"/>
        <g stroke-linecap="round">
            <g stroke="currentColor" stroke-width="1.25">
                <path d="M.5 13.495v7.9a2 2 0 0 0 2 2h11.244M19.695 12V6a2 2 0 0 0-2-2h-7.7"/>
                <path d="M10.4 4H2.5a2 2 0 0 0-2 2v7.7"/>
            </g>
            <path d="M10 20.5v-14m-7 7h13" opacity=".55" stroke="currentColor" stroke-width="1.5"/>
            <g transform="rotate(-20 57.345 -33.16)" stroke="#ffff" stroke-linejoin="round" stroke-width="1.25">
                <circle cx="5.124" cy="5.767" r="1.282"/>
                <path d="m6.214.808.377 1.241a.85.85 0 0 0 1.003.582l1.259-.292a1.144 1.144 0 0 1 1.089 1.896l-.88.95a.856.856 0 0 0 0 1.16l.88.949a1.144 1.144 0 0 1-1.09 1.896l-1.258-.292a.85.85 0 0 0-1.007.586l-.377 1.241a1.138 1.138 0 0 1-2.179 0l-.374-1.241A.85.85 0 0 0 2.654 8.9l-1.258.292a1.144 1.144 0 0 1-1.09-1.896l.881-.95a.856.856 0 0 0 0-1.16l-.88-.95a1.144 1.144 0 0 1 1.089-1.895l1.258.291a.85.85 0 0 0 1.003-.581L4.035.81A1.138 1.138 0 0 1 6.214.808"/>
            </g>
        </g>
    </g>
</svg>
